solid 
facet normal 0 0 1
outer loop 
vertex 19.000002 -24 131
vertex 19.000002 76 131
vertex -81 76 131
endloop 
endfacet 
facet normal 0 0 1
outer loop 
vertex -81 76 131
vertex -81 -24 131
vertex 19.000002 -24 131
endloop 
endfacet 
facet normal 0 0 -1
outer loop 
vertex -81 76 31
vertex 19.000002 76 31
vertex 19.000002 -24 31
endloop 
endfacet 
facet normal 0 0 -1
outer loop 
vertex 19.000002 -24 31
vertex -81 -24 31
vertex -81 76 31
endloop 
endfacet 
facet normal 0 1 0
outer loop 
vertex 19.000002 76 131
vertex 19.000002 76 31
vertex -81 76 31
endloop 
endfacet 
facet normal 0 1 0
outer loop 
vertex -81 76 31
vertex -81 76 131
vertex 19.000002 76 131
endloop 
endfacet 
facet normal -1 0 0
outer loop 
vertex -81 76 131
vertex -81 76 31
vertex -81 -24 31
endloop 
endfacet 
facet normal -1 0 0
outer loop 
vertex -81 -24 31
vertex -81 -24 131
vertex -81 76 131
endloop 
endfacet 
facet normal 0 -1 0
outer loop 
vertex -81 -24 131
vertex -81 -24 31
vertex 19.000002 -24 31
endloop 
endfacet 
facet normal 0 -1 0
outer loop 
vertex 19.000002 -24 31
vertex 19.000002 -24 131
vertex -81 -24 131
endloop 
endfacet 
facet normal 1 0 0
outer loop 
vertex 19.000002 -24 131
vertex 19.000002 -24 31
vertex 19.000002 76 31
endloop 
endfacet 
facet normal 1 0 0
outer loop 
vertex 19.000002 76 31
vertex 19.000002 76 131
vertex 19.000002 -24 131
endloop 
endfacet 
endsolid 
